<svg id="visual" viewBox="0 0 900 600" width="900" height="600" xmlns="http://www.w3.org/2000/svg" xmlns:xlink="http://www.w3.org/1999/xlink" version="1.1"><rect x="0" y="0" width="900" height="600" fill="#002233"></rect><path d="M0 282L21.5 285.5C43 289 86 296 128.8 302.8C171.7 309.7 214.3 316.3 257.2 319.7C300 323 343 323 385.8 319.8C428.7 316.7 471.3 310.3 514.2 311.3C557 312.3 600 320.7 642.8 316C685.7 311.3 728.3 293.7 771.2 285.2C814 276.7 857 277.3 878.5 277.7L900 278L900 601L878.5 601C857 601 814 601 771.2 601C728.3 601 685.7 601 642.8 601C600 601 557 601 514.2 601C471.3 601 428.7 601 385.8 601C343 601 300 601 257.2 601C214.3 601 171.7 601 128.8 601C86 601 43 601 21.5 601L0 601Z" fill="#715DF2" stroke-linecap="round" stroke-linejoin="miter"></path></svg>