<svg id="visual" viewBox="0 0 1920 700" width="1920" height="700" xmlns="http://www.w3.org/2000/svg" xmlns:xlink="http://www.w3.org/1999/xlink" version="1.1"><rect x="0" y="0" width="1920" height="700" fill="#002233"></rect><path d="M0 176L45.7 179.5C91.3 183 182.7 190 274.2 178.2C365.7 166.3 457.3 135.7 548.8 139.3C640.3 143 731.7 181 823 181.8C914.3 182.7 1005.7 146.3 1097 130.5C1188.3 114.7 1279.7 119.3 1371.2 134.8C1462.7 150.3 1554.3 176.7 1645.8 173.8C1737.3 171 1828.7 139 1874.3 123L1920 107L1920 0L1874.3 0C1828.7 0 1737.3 0 1645.8 0C1554.3 0 1462.7 0 1371.2 0C1279.7 0 1188.3 0 1097 0C1005.7 0 914.3 0 823 0C731.7 0 640.3 0 548.8 0C457.3 0 365.7 0 274.2 0C182.7 0 91.3 0 45.7 0L0 0Z" fill="#F7770F" stroke-linecap="round" stroke-linejoin="miter"></path></svg>