<svg id="visual" viewBox="0 0 1920 700" width="1920" height="700" xmlns="http://www.w3.org/2000/svg" xmlns:xlink="http://www.w3.org/1999/xlink" version="1.1"><rect x="0" y="0" width="1920" height="700" fill="#002233"></rect><path d="M0 475L45.7 489C91.3 503 182.7 531 274.2 530.3C365.7 529.7 457.3 500.3 548.8 488.2C640.3 476 731.7 481 823 487.7C914.3 494.3 1005.7 502.7 1097 508.2C1188.3 513.7 1279.7 516.3 1371.2 524.2C1462.7 532 1554.3 545 1645.8 535.3C1737.3 525.7 1828.7 493.3 1874.3 477.2L1920 461L1920 701L1874.3 701C1828.7 701 1737.3 701 1645.8 701C1554.3 701 1462.7 701 1371.2 701C1279.7 701 1188.3 701 1097 701C1005.7 701 914.3 701 823 701C731.7 701 640.3 701 548.8 701C457.3 701 365.7 701 274.2 701C182.7 701 91.3 701 45.7 701L0 701Z" fill="#F7770F" stroke-linecap="round" stroke-linejoin="miter"></path></svg>