<svg id="visual" viewBox="0 0 1920 700" width="1920" height="700" xmlns="http://www.w3.org/2000/svg" xmlns:xlink="http://www.w3.org/1999/xlink" version="1.1"><rect x="0" y="0" width="1920" height="700" fill="#002233"></rect><path d="M0 155L45.7 155.5C91.3 156 182.7 157 274.2 164.7C365.7 172.3 457.3 186.7 548.8 197C640.3 207.3 731.7 213.7 823 212C914.3 210.3 1005.7 200.7 1097 185.8C1188.3 171 1279.7 151 1371.2 147.5C1462.7 144 1554.3 157 1645.8 165.5C1737.3 174 1828.7 178 1874.3 180L1920 182L1920 0L1874.3 0C1828.7 0 1737.3 0 1645.8 0C1554.3 0 1462.7 0 1371.2 0C1279.7 0 1188.3 0 1097 0C1005.7 0 914.3 0 823 0C731.7 0 640.3 0 548.8 0C457.3 0 365.7 0 274.2 0C182.7 0 91.3 0 45.7 0L0 0Z" fill="#715DF2" stroke-linecap="round" stroke-linejoin="miter"></path></svg>