<svg id="visual" viewBox="0 0 900 600" width="900" height="600" xmlns="http://www.w3.org/2000/svg" xmlns:xlink="http://www.w3.org/1999/xlink" version="1.1"><rect x="0" y="0" width="900" height="600" fill="#002233"></rect><path d="M0 291L25 301C50 311 100 331 150 334.3C200 337.7 250 324.3 300 319.7C350 315 400 319 450 321.7C500 324.3 550 325.7 600 323.5C650 321.3 700 315.7 750 318C800 320.3 850 330.7 875 335.8L900 341L900 0L875 0C850 0 800 0 750 0C700 0 650 0 600 0C550 0 500 0 450 0C400 0 350 0 300 0C250 0 200 0 150 0C100 0 50 0 25 0L0 0Z" fill="#6600FF" stroke-linecap="round" stroke-linejoin="miter"></path></svg>